<mxfile host="app.diagrams.net" modified="2021-01-04T14:06:25.662Z" agent="5.0 (Windows NT 10.0; Win64; x64) AppleWebKit/537.36 (KHTML, like Gecko) Chrome/84.0.4147.105 Safari/537.36" etag="ef7R0KaXEfF4L0tgz3gS" version="14.1.8" type="github">
  <diagram id="yDWQ4Q8sWPt4xedBLvjV" name="Page-1">
    <mxGraphModel dx="1422" dy="762" grid="1" gridSize="10" guides="1" tooltips="1" connect="1" arrows="1" fold="1" page="1" pageScale="1" pageWidth="827" pageHeight="1169" math="0" shadow="0">
      <root>
        <mxCell id="0" />
        <mxCell id="1" parent="0" />
        <mxCell id="KHNy80irOr1HjYow0Eg1-1" value="mos-server" style="whiteSpace=wrap;html=1;aspect=fixed;" vertex="1" parent="1">
          <mxGeometry x="340" y="220" width="80" height="80" as="geometry" />
        </mxCell>
        <mxCell id="KHNy80irOr1HjYow0Eg1-15" value="注册" style="edgeStyle=orthogonalEdgeStyle;rounded=0;orthogonalLoop=1;jettySize=auto;html=1;exitX=0.5;exitY=0;exitDx=0;exitDy=0;entryX=0.5;entryY=0;entryDx=0;entryDy=0;dashed=1;" edge="1" parent="1" source="KHNy80irOr1HjYow0Eg1-3" target="KHNy80irOr1HjYow0Eg1-1">
          <mxGeometry relative="1" as="geometry" />
        </mxCell>
        <mxCell id="KHNy80irOr1HjYow0Eg1-18" value="注册" style="edgeStyle=orthogonalEdgeStyle;rounded=0;orthogonalLoop=1;jettySize=auto;html=1;exitX=0.75;exitY=0;exitDx=0;exitDy=0;entryX=0.75;entryY=1;entryDx=0;entryDy=0;dashed=1;" edge="1" parent="1" source="KHNy80irOr1HjYow0Eg1-3" target="KHNy80irOr1HjYow0Eg1-5">
          <mxGeometry relative="1" as="geometry">
            <Array as="points">
              <mxPoint x="584" y="200" />
              <mxPoint x="620" y="200" />
              <mxPoint x="620" y="460" />
              <mxPoint x="400" y="460" />
            </Array>
          </mxGeometry>
        </mxCell>
        <mxCell id="KHNy80irOr1HjYow0Eg1-3" value="mos-client" style="whiteSpace=wrap;html=1;aspect=fixed;" vertex="1" parent="1">
          <mxGeometry x="524" y="220" width="80" height="80" as="geometry" />
        </mxCell>
        <mxCell id="KHNy80irOr1HjYow0Eg1-16" value="注册" style="edgeStyle=orthogonalEdgeStyle;rounded=0;orthogonalLoop=1;jettySize=auto;html=1;exitX=0.5;exitY=1;exitDx=0;exitDy=0;entryX=0.5;entryY=1;entryDx=0;entryDy=0;dashed=1;" edge="1" parent="1" source="KHNy80irOr1HjYow0Eg1-4" target="KHNy80irOr1HjYow0Eg1-5">
          <mxGeometry relative="1" as="geometry">
            <Array as="points">
              <mxPoint x="564" y="480" />
              <mxPoint x="380" y="480" />
            </Array>
          </mxGeometry>
        </mxCell>
        <mxCell id="KHNy80irOr1HjYow0Eg1-17" value="注册" style="edgeStyle=orthogonalEdgeStyle;rounded=0;orthogonalLoop=1;jettySize=auto;html=1;exitX=0.75;exitY=1;exitDx=0;exitDy=0;entryX=0.75;entryY=0;entryDx=0;entryDy=0;dashed=1;" edge="1" parent="1" source="KHNy80irOr1HjYow0Eg1-4" target="KHNy80irOr1HjYow0Eg1-1">
          <mxGeometry relative="1" as="geometry">
            <Array as="points">
              <mxPoint x="584" y="480" />
              <mxPoint x="640" y="480" />
              <mxPoint x="640" y="190" />
              <mxPoint x="400" y="190" />
            </Array>
          </mxGeometry>
        </mxCell>
        <mxCell id="KHNy80irOr1HjYow0Eg1-4" value="mos-client" style="whiteSpace=wrap;html=1;aspect=fixed;" vertex="1" parent="1">
          <mxGeometry x="524" y="360" width="80" height="80" as="geometry" />
        </mxCell>
        <mxCell id="KHNy80irOr1HjYow0Eg1-5" value="mos-server" style="whiteSpace=wrap;html=1;aspect=fixed;" vertex="1" parent="1">
          <mxGeometry x="340" y="360" width="80" height="80" as="geometry" />
        </mxCell>
        <mxCell id="KHNy80irOr1HjYow0Eg1-7" value="" style="endArrow=classic;html=1;exitX=1;exitY=0.5;exitDx=0;exitDy=0;entryX=0;entryY=0.5;entryDx=0;entryDy=0;" edge="1" parent="1" source="KHNy80irOr1HjYow0Eg1-1" target="KHNy80irOr1HjYow0Eg1-3">
          <mxGeometry width="50" height="50" relative="1" as="geometry">
            <mxPoint x="430" y="280" as="sourcePoint" />
            <mxPoint x="534" y="230" as="targetPoint" />
          </mxGeometry>
        </mxCell>
        <mxCell id="KHNy80irOr1HjYow0Eg1-8" value="" style="endArrow=classic;html=1;exitX=1;exitY=0.5;exitDx=0;exitDy=0;entryX=0;entryY=0.5;entryDx=0;entryDy=0;" edge="1" parent="1" source="KHNy80irOr1HjYow0Eg1-1" target="KHNy80irOr1HjYow0Eg1-4">
          <mxGeometry width="50" height="50" relative="1" as="geometry">
            <mxPoint x="430" y="280" as="sourcePoint" />
            <mxPoint x="534" y="350" as="targetPoint" />
          </mxGeometry>
        </mxCell>
        <mxCell id="KHNy80irOr1HjYow0Eg1-10" value="" style="endArrow=classic;html=1;exitX=1;exitY=0.5;exitDx=0;exitDy=0;entryX=0;entryY=0.5;entryDx=0;entryDy=0;" edge="1" parent="1" source="KHNy80irOr1HjYow0Eg1-5" target="KHNy80irOr1HjYow0Eg1-3">
          <mxGeometry width="50" height="50" relative="1" as="geometry">
            <mxPoint x="430" y="400" as="sourcePoint" />
            <mxPoint x="534" y="230" as="targetPoint" />
          </mxGeometry>
        </mxCell>
        <mxCell id="KHNy80irOr1HjYow0Eg1-12" value="" style="endArrow=classic;html=1;exitX=1;exitY=0.5;exitDx=0;exitDy=0;entryX=0;entryY=0.5;entryDx=0;entryDy=0;" edge="1" parent="1" source="KHNy80irOr1HjYow0Eg1-5" target="KHNy80irOr1HjYow0Eg1-4">
          <mxGeometry width="50" height="50" relative="1" as="geometry">
            <mxPoint x="430" y="400" as="sourcePoint" />
            <mxPoint x="534" y="350" as="targetPoint" />
          </mxGeometry>
        </mxCell>
        <mxCell id="KHNy80irOr1HjYow0Eg1-13" value="......" style="text;html=1;align=center;verticalAlign=middle;resizable=0;points=[];autosize=1;rotation=90;fontStyle=1" vertex="1" parent="1">
          <mxGeometry x="360" y="320" width="40" height="20" as="geometry" />
        </mxCell>
        <mxCell id="KHNy80irOr1HjYow0Eg1-14" value="......" style="text;html=1;align=center;verticalAlign=middle;resizable=0;points=[];autosize=1;rotation=90;fontStyle=1" vertex="1" parent="1">
          <mxGeometry x="544" y="320" width="40" height="20" as="geometry" />
        </mxCell>
        <mxCell id="KHNy80irOr1HjYow0Eg1-20" value="LB" style="whiteSpace=wrap;html=1;aspect=fixed;" vertex="1" parent="1">
          <mxGeometry x="150" y="290" width="80" height="80" as="geometry" />
        </mxCell>
        <mxCell id="KHNy80irOr1HjYow0Eg1-22" value="" style="endArrow=classic;html=1;exitX=1;exitY=0.5;exitDx=0;exitDy=0;entryX=0;entryY=0.5;entryDx=0;entryDy=0;" edge="1" parent="1" source="KHNy80irOr1HjYow0Eg1-20" target="KHNy80irOr1HjYow0Eg1-1">
          <mxGeometry width="50" height="50" relative="1" as="geometry">
            <mxPoint x="270" y="340" as="sourcePoint" />
            <mxPoint x="320" y="290" as="targetPoint" />
          </mxGeometry>
        </mxCell>
        <mxCell id="KHNy80irOr1HjYow0Eg1-23" value="" style="endArrow=classic;html=1;exitX=1;exitY=0.5;exitDx=0;exitDy=0;entryX=0;entryY=0.5;entryDx=0;entryDy=0;" edge="1" parent="1" source="KHNy80irOr1HjYow0Eg1-20" target="KHNy80irOr1HjYow0Eg1-5">
          <mxGeometry width="50" height="50" relative="1" as="geometry">
            <mxPoint x="220" y="340" as="sourcePoint" />
            <mxPoint x="350" y="270" as="targetPoint" />
          </mxGeometry>
        </mxCell>
        <mxCell id="KHNy80irOr1HjYow0Eg1-24" value="用户" style="shape=umlActor;verticalLabelPosition=bottom;verticalAlign=top;html=1;outlineConnect=0;" vertex="1" parent="1">
          <mxGeometry x="30" y="310" width="30" height="60" as="geometry" />
        </mxCell>
        <mxCell id="KHNy80irOr1HjYow0Eg1-25" value="" style="endArrow=classic;html=1;entryX=0;entryY=0.5;entryDx=0;entryDy=0;" edge="1" parent="1" target="KHNy80irOr1HjYow0Eg1-20">
          <mxGeometry width="50" height="50" relative="1" as="geometry">
            <mxPoint x="70" y="330" as="sourcePoint" />
            <mxPoint x="150" y="360" as="targetPoint" />
          </mxGeometry>
        </mxCell>
      </root>
    </mxGraphModel>
  </diagram>
</mxfile>
